<svg xmlns="http://www.w3.org/2000/svg" xmlns:xlink="http://www.w3.org/1999/xlink" enable-background="new 0 0 3000 3000" viewBox="0 0 3000 3000"><path fill="#85d4ff" d="M863.7,2766.2c-391.4,60.2-793-441.4-735.3-770.2c27.7-157.9,245.6-309.2,239.9-455
				c-8.2-208.6-234.2-428.1-123.5-647c224.4-443.6,656.8-319.2,1060.5-435.9c215.4-62.3,346-178,644.7-220.6
				c394.7-56.3,671.5,170.8,698.9,431.8c26.4,251.5-110.5,436.6-54.2,625.6c99.6,334.2,507.5,523.7,115.6,872
				c-97.5,86.7-171.3,164.7-309.7,186.1L863.7,2766.2z"/><path fill="#b6e5ff" d="M368.3,1551.7c82.4,13.1,168.6,14.9,256.2,3.8c421.5-53.4,712.2-386.4,649.3-743.7
			c-21-119.1-78.6-225.8-161.6-313.2c-342.4,51-678.5,22.1-867.3,395.3c-110.7,218.9,115.3,438.4,123.5,647
			C368.4,1544.6,368.4,1548.1,368.3,1551.7z"/><path fill="#b6e5ff" d="M1785.9,2518.2l614.5-165.2c138.4-21.3,212.2-99.4,309.7-186.1c387.8-344.6-7.3-533.7-112.3-861.3
			C2074,1529.1,1741.8,2003.8,1785.9,2518.2z"/><path fill="#fbc59f" d="M778.8,1790.4v-434.5l-153.4,153.9l-148.9,199.8l-165.2,436.5l-34.2,118.2h0h0L122.9,2723
		c0,0,101.9,189.1,322.1,143.7c100.5-20.7,120.1-37,120.1-37l53-484.1l0,0l212.4-162.7l320.8-392.5H778.8z"/><polygon fill="#af8363" points="782.2 2042.1 720.4 1871.6 745.6 1672.3 772.2 1684 772.4 1809.5 968.7 1915.3 940.9 2047.9 830.5 2182.9 680.3 2298 618.1 2345.6 556.9 2353.7"/><path fill="#fbc59f" d="M2682.1,2264.3L2682.1,2264.3L2682.1,2264.3l-34.2-118.2l-165.2-436.5l-148.9-199.8l-153.4-153.9v434.5h-372.5
		l320.8,392.5l212.4,162.7l0,0l61.2,517.8c0,0,19.7,16.3,120.1,37c220.3,45.4,334-131.3,334-131.3L2682.1,2264.3z"/><polygon fill="#af8363" points="2177.2 2042.1 2239 1871.6 2213.7 1672.3 2187.1 1684 2186.9 1809.5 1990.6 1915.3 2018.4 2047.9 2128.8 2182.9 2279 2298 2341.2 2345.6 2402.4 2353.7"/><path fill="#e9ae84" d="M2406.7,2333.1l1.6-6.7l-67.2,19.2l61.2,517.8c0,0,13.4,13.3,101,32.9v1.2c0,0-65.7-125.6-79.9-231
		C2407.7,2551,2406.7,2333.1,2406.7,2333.1z"/><polygon fill="#e9ae84" points="2272.5 1652.1 2180.5 1548.9 2180.5 1775 2219.4 1948.4 2328 1810.9"/><path fill="#e9ae84" d="M552.6,2333.1l-1.6-6.7l67.2,19.2l-53,484.1c0,0-13.4,13.3-101,32.9v1.2c0,0,65.7-125.6,79.9-231
		C559.8,2517.2,552.6,2333.1,552.6,2333.1z"/><polygon fill="#e9ae84" points="686.9 1652.1 778.8 1548.9 778.8 1775 739.9 1948.4 631.3 1810.9"/><g><path fill="#f2f2f2" d="M727.1,1348.7v619c0,43.2,35.1,78.3,78.3,78.3h1296.3c43.2,0,78.3-35.1,78.3-78.3v-619
		c0-43.2-35.1-78.3-78.3-78.3H805.4C762.2,1270.4,727.1,1305.4,727.1,1348.7z"/><defs><path id="a" d="M727.1,1348.7v619c0,43.2,35.1,78.3,78.3,78.3h1296.3c43.2,0,78.3-35.1,78.3-78.3v-619
					c0-43.2-35.1-78.3-78.3-78.3H805.4C762.2,1270.4,727.1,1305.4,727.1,1348.7z"/></defs><clipPath id="b"><use overflow="visible" xlink:href="#a"/></clipPath><g clip-path="url(#b)"><rect width="863.8" height="1167.4" x="675.6" y="292" fill="#ebe6db" transform="rotate(-65.09 1107.375 875.646)"/><rect width="153.9" height="230.3" x="797.7" y="1043.8" fill="#bbd182" transform="rotate(-65.09 874.593 1158.884)"/><rect width="244.3" height="200" x="882.8" y="674.8" fill="#bbd182" transform="rotate(-65.09 1004.93 774.76)"/><polygon fill="#bbd182" points="1252.1 1038.1 1322.5 1161.8 1415.6 1116.4"/><polygon fill="#6fadb2" points="1320.9 821.8 1566.4 935.8 1619.6 835.5 1432.7 596.1"/><polygon fill="#bbd182" points="517.9 733.4 568.4 842.4 703.6 775.7 537.1 692.2"/><rect width="60.1" height="115" x="911.1" y="480.7" fill="#6fadb2" transform="rotate(-65.09 941.123 538.22)"/><path fill="#fff" d="M1120.6,561.2l73.5-158.2l-27-12.5L1087,562.9l-70.4-32.7l-14.9-6.9L919,484.9l80-172.3l-27-12.5
					l-85.9,185l-251.8-117l-64.1,138L822,623l-69.3,149.2L379.6,598.9l-20.1,43.2L672,787.3l-98.9,44.1l-52.4-113.2l-16.2,7.5
					l52.3,113l-153.6,68.4l12.1,27.2l67-29.9l34.3,93.8l95.6,44.4l-36.5,78.7l142.4,66.1l-2.9,6.2l27,12.5l2.9-6.2l64.8-139.5
					l321.4,149.3l-77.4,166.6l27,12.5l42.5-91.5l76.7,35.6l-32.8,70.5l16.2,7.5l42.9-92.3L1347,1259l153,280.2l26.1-14.3
					l-96.8-177.2l186.2-81.8l-7.2-16.4l-187.6,82.4l-86.4-158.2l75.6-43.7l252.1,117.1l20.1-43.2l-178.7-83l75.6-162.8l25.8-55.5
					l134.7,62.5l12.5-27l-134.7-62.5l96.8-208.4l-27-12.5l-72.1,155.2l-169.4-221.3l19.7-42.5l-27-12.5l-66.9,144.1l-152.5-70.8
					l71-152.9l-27-12.5l-71,152.9l-25.8-12L1120.6,561.2z M994.1,539.5l-17.8,38.3l-82.7-38.4l17.8-38.3L994.1,539.5z M1287.8,857.9
					l-21.3,46l-165.5-76.9l21.3-46L1287.8,857.9z M1322.6,854.3l-0.3-0.1l5.9-12.6l90.8,42.2l-75.6,162.8l-90.8-42.2l33.3-71.8
					l0.3,0.1L1322.6,854.3z M721.9,877.2l25.5-54.9l115.3,53.6l-25.5,54.9L721.9,877.2z M831.8,672.7l54.3-117l82.7,38.4l-54.3,117
					L831.8,672.7z M970.1,633.7l29.1,13.5l9.5,131.9l77.9,36.2l-9.4,20.3l-33.3,71.8l-165.2-76.7l44.5-95.9L970.1,633.7z
					 M1060,914.9l33.3-71.8l165.5,76.9l-33.3,71.8L1060,914.9z M1094.1,799.1l-68.3-31.7l-8-111.5l117.5,54.6l-21.7,46.8
					L1094.1,799.1z M977.6,617.5l14.9-32.1l17.8-38.3l165.2,76.7l-32.7,70.5L977.6,617.5z M593.9,497.4l49-105.6l235.6,109.4
					l-49,105.6L593.9,497.4z M824.2,688.9l82.7,38.4l-44.5,95.9l-82.7-38.4L824.2,688.9z M530.9,985.1l-32.2-88l209.2-93.2l12.5,5.8
					l-25.5,54.9l-6.3,13.5l-68.8,148.2L530.9,985.1z M730.6,1160.4l-115.3-53.6l94.1-202.6l115.3,53.6l-41.8,90.1L730.6,1160.4z
					 M822.4,1033.4l41.8-90.1l25.5-54.9l321.4,149.3l-54.4,117.1l-13,27.9L822.4,1033.4z M1212.8,1305.6l-5.2,11.2l-76.7-35.6
					l27.4-58.9l25.5-54.9l52-111.9l102.6,187.9L1212.8,1305.6z M1325.8,1158l-49.1-89.9l113.5,52.7L1325.8,1158z M1476.5,1108.3
					l-106.1-49.3l75.6-162.8l106.1,49.3L1476.5,1108.3z M1601,840.3l-10.5,22.7l-25.8,55.5l-106.1-49.3l-117.8-54.7l90.8-195.5
					L1601,840.3z M1358.9,704.7l-45.2,97.3l-12.5,27l-5.9,12.6l-165.5-76.9l63.6-137l13,6L1358.9,704.7z"/><path fill="#4992ce" d="M1196,1141.1"/></g><g clip-path="url(#b)"><rect width="863.8" height="1167.4" x="1691.8" y="762.2" fill="#ebe6db" transform="rotate(-65.09 2123.532 1345.866)"/><rect width="153.9" height="230.3" x="1813.9" y="1514" fill="#bbd182" transform="rotate(-65.09 1890.75 1629.104)"/><rect width="244.3" height="200" x="1899" y="1145" fill="#bbd182" transform="rotate(-65.09 2021.087 1244.98)"/><polygon fill="#bbd182" points="2268.3 1508.3 2338.7 1632 2431.8 1586.6"/><polygon fill="#6fadb2" points="2337.1 1292 2582.6 1406 2635.8 1305.8 2448.9 1066.3"/><polygon fill="#bbd182" points="1534.2 1203.6 1584.6 1312.6 1719.8 1245.9 1553.3 1162.4"/><rect width="60.1" height="115" x="1927.3" y="951" fill="#6fadb2" transform="rotate(-65.09 1957.28 1008.44)"/><path fill="#fff" d="M2136.8,1031.4l73.5-158.2l-27-12.5l-80.1,172.5l-70.4-32.7l-14.9-6.9l-82.7-38.4l80-172.3l-27-12.5
					l-85.9,185l-251.8-117l-64.1,138l251.8,117l-69.3,149.2l-373.1-173.3l-20.1,43.2l312.5,145.1l-98.9,44.1l-52.4-113.2l-16.2,7.5
					l52.3,113l-153.6,68.4l12.1,27.2l67-29.9l34.3,93.8l95.6,44.4l-36.5,78.7l142.4,66.1l-2.9,6.2l27,12.5l2.9-6.2l64.8-139.5
					l321.4,149.3l-77.4,166.6l27,12.5l42.5-91.5l76.7,35.6l-32.8,70.5l16.2,7.5l42.9-92.3l120.6-59.8l153,280.2l26.1-14.3
					l-96.8-177.2l186.2-81.8l-7.2-16.4l-187.6,82.4l-86.4-158.2l75.6-43.7l252.1,117.1l20.1-43.2l-178.7-83l75.6-162.8l25.8-55.5
					l134.7,62.5l12.5-27l-134.7-62.5l96.8-208.4l-27-12.5l-72.1,155.2l-169.4-221.3l19.7-42.5l-27-12.5l-66.9,144.1l-152.5-70.8
					l71-152.9l-27-12.5l-71,152.9l-25.8-12L2136.8,1031.4z M2010.3,1009.8l-17.8,38.3l-82.7-38.4l17.8-38.3L2010.3,1009.8z
					 M2304,1328.1l-21.3,46l-165.5-76.9l21.3-46L2304,1328.1z M2338.8,1324.6l-0.3-0.1l5.9-12.6l90.8,42.2l-75.6,162.8l-90.8-42.2
					l33.3-71.8l0.3,0.1L2338.8,1324.6z M1738.1,1347.5l25.5-54.9l115.3,53.6l-25.5,54.9L1738.1,1347.5z M1848,1142.9l54.3-117
					l82.7,38.4l-54.3,117L1848,1142.9z M1986.3,1104l29.1,13.5l9.5,131.9l77.9,36.2l-9.4,20.3l-33.3,71.8l-165.2-76.7l44.5-95.9
					L1986.3,1104z M2076.2,1385.2l33.3-71.8l165.5,76.9l-33.3,71.8L2076.2,1385.2z M2110.3,1269.4l-68.3-31.7l-8-111.5l117.5,54.6
					l-21.7,46.8L2110.3,1269.4z M1993.8,1087.8l14.9-32.1l17.8-38.3l165.2,76.7l-32.7,70.5L1993.8,1087.8z M1610.1,967.6l49-105.6
					l235.6,109.4l-49,105.6L1610.1,967.6z M1840.5,1159.1l82.7,38.4l-44.5,95.9l-82.7-38.4L1840.5,1159.1z M1547.1,1455.4l-32.2-88
					l209.2-93.2l12.5,5.8l-25.5,54.9l-6.3,13.5l-68.8,148.2L1547.1,1455.4z M1746.8,1630.6l-115.3-53.6l94.1-202.6l115.3,53.6
					l-41.8,90.1L1746.8,1630.6z M1838.6,1503.6l41.8-90.1l25.5-54.9l321.4,149.3L2173,1625l-13,27.9L1838.6,1503.6z M2229,1775.8
					l-5.2,11.2l-76.7-35.6l27.4-58.9l25.5-54.9l52-111.9l102.6,187.9L2229,1775.8z M2342,1628.3l-49.1-89.9l113.5,52.7L2342,1628.3z
					 M2492.7,1578.6l-106.1-49.3l75.6-162.8l106.1,49.3L2492.7,1578.6z M2617.2,1310.5l-10.5,22.7l-25.8,55.5l-106.1-49.3
					l-117.8-54.7l90.8-195.5L2617.2,1310.5z M2375.1,1174.9l-45.2,97.3l-12.5,27l-5.9,12.6L2146,1235l63.6-137l13,6L2375.1,1174.9z"/><path fill="#4992ce" d="M2212.2,1611.3"/></g><g clip-path="url(#b)"><rect width="863.8" height="1167.4" x="638.5" y="1102.4" fill="#ebe6db" transform="rotate(-65.09 1070.345 1686.004)"/><rect width="153.9" height="230.3" x="760.7" y="1854.2" fill="#bbd182" transform="rotate(-65.09 837.563 1969.242)"/><rect width="244.3" height="200" x="845.8" y="1485.2" fill="#bbd182" transform="rotate(-65.09 967.9 1585.119)"/><polygon fill="#bbd182" points="1215 1848.5 1285.5 1972.2 1378.6 1926.8"/><polygon fill="#6fadb2" points="1283.9 1632.2 1529.4 1746.2 1582.6 1645.9 1395.7 1406.5"/><polygon fill="#bbd182" points="480.9 1543.8 531.3 1652.8 666.6 1586.1 500.1 1502.6"/><rect width="60.1" height="115" x="874.1" y="1291.1" fill="#6fadb2" transform="rotate(-65.09 904.093 1348.578)"/><path fill="#fff" d="M1083.6,1371.6l73.5-158.2l-27-12.5l-80.1,172.5l-70.4-32.7l-14.9-6.9l-82.7-38.4l80-172.3l-27-12.5
					l-85.9,185l-251.8-117l-64.1,138l251.8,117l-69.3,149.2l-373.1-173.3l-20.1,43.2L635,1597.7l-98.9,44.1l-52.4-113.2l-16.2,7.5
					l52.3,113l-153.6,68.4l12.1,27.2l67-29.9l34.3,93.8l95.6,44.4l-36.5,78.7l142.4,66.1l-2.9,6.2l27,12.5l2.9-6.2l64.8-139.5
					l321.4,149.3l-77.4,166.6l27,12.5l42.5-91.5l76.7,35.6l-32.8,70.5l16.2,7.5l42.9-92.3l120.6-59.8l153,280.2l26.1-14.3
					l-96.8-177.2l186.2-81.8l-7.2-16.4l-187.6,82.4l-86.4-158.2l75.6-43.7l252.1,117.1l20.1-43.2l-178.7-83l75.6-162.8l25.8-55.5
					l134.7,62.5l12.5-27l-134.7-62.5l96.8-208.4l-27-12.5l-72.1,155.2L1408.7,1399l19.7-42.5l-27-12.5l-66.9,144.1l-152.5-70.8
					l71-152.9l-27-12.5l-71,152.9l-25.8-12L1083.6,1371.6z M957.1,1349.9l-17.8,38.3l-82.7-38.4l17.8-38.3L957.1,1349.9z
					 M1250.7,1668.3l-21.3,46l-165.5-76.9l21.3-46L1250.7,1668.3z M1285.6,1664.7l-0.3-0.1l5.9-12.6l90.8,42.2l-75.6,162.8
					l-90.8-42.2l33.3-71.8l0.3,0.1L1285.6,1664.7z M684.8,1687.6l25.5-54.9l115.3,53.6l-25.5,54.9L684.8,1687.6z M794.7,1483.1
					l54.3-117l82.7,38.4l-54.3,117L794.7,1483.1z M933.1,1444.1l29.1,13.5l9.5,131.9l77.9,36.2l-9.4,20.3l-33.3,71.8l-165.2-76.7
					l44.5-95.9L933.1,1444.1z M1023,1725.3l33.3-71.8l165.5,76.9l-33.3,71.8L1023,1725.3z M1057.1,1609.5l-68.3-31.7l-8-111.5
					l117.5,54.6l-21.7,46.8L1057.1,1609.5z M940.6,1427.9l14.9-32.1l17.8-38.3l165.2,76.7l-32.7,70.5L940.6,1427.9z M556.8,1307.8
					l49-105.6l235.6,109.4l-49,105.6L556.8,1307.8z M787.2,1499.3l82.7,38.4l-44.5,95.9l-82.7-38.4L787.2,1499.3z M493.8,1795.5
					l-32.2-88l209.2-93.2l12.5,5.8l-25.5,54.9l-6.3,13.5l-68.8,148.2L493.8,1795.5z M693.5,1970.8l-115.3-53.6l94.1-202.6
					l115.3,53.6l-41.8,90.1L693.5,1970.8z M785.4,1843.8l41.8-90.1l25.5-54.9l321.4,149.3l-54.4,117.1l-13,27.9L785.4,1843.8z
					 M1175.8,2116l-5.2,11.2l-76.7-35.6l27.4-58.9l25.5-54.9l52-111.9l102.6,187.9L1175.8,2116z M1288.8,1968.4l-49.1-89.9
					l113.5,52.7L1288.8,1968.4z M1439.5,1918.7l-106.1-49.3l75.6-162.8l106.1,49.3L1439.5,1918.7z M1563.9,1650.7l-10.5,22.7
					l-25.8,55.5l-106.1-49.3l-117.8-54.7l90.8-195.5L1563.9,1650.7z M1321.9,1515.1l-45.2,97.3l-12.5,27l-5.9,12.6l-165.5-76.9
					l63.6-137l13,6L1321.9,1515.1z"/><path fill="#4992ce" d="M1159,1951.5"/></g><g clip-path="url(#b)"><rect width="863.8" height="1167.4" x="1654.7" y="1572.6" fill="#ebe6db" transform="rotate(-65.09 2086.502 2156.225)"/><rect width="153.9" height="230.3" x="1776.9" y="2324.4" fill="#bbd182" transform="rotate(-65.09 1853.72 2439.463)"/><rect width="244.3" height="200" x="1862" y="1955.4" fill="#bbd182" transform="rotate(-65.09 1984.057 2055.34)"/><polygon fill="#bbd182" points="2231.3 2318.7 2301.7 2442.4 2394.8 2397"/><polygon fill="#6fadb2" points="2300.1 2102.4 2545.6 2216.4 2598.8 2116.2 2411.9 1876.7"/><polygon fill="#bbd182" points="1497.1 2014 1547.6 2123 1682.8 2056.3 1516.3 1972.8"/><rect width="60.1" height="115" x="1890.3" y="1761.4" fill="#6fadb2" transform="rotate(-65.09 1920.25 1818.798)"/><path fill="#fff" d="M2099.8,1841.8l73.5-158.2l-27-12.5l-80.1,172.5l-70.4-32.7l-14.9-6.9l-82.7-38.4l80-172.3l-27-12.5
					l-85.9,185l-251.8-117l-64.1,138l251.8,117l-69.3,149.2l-373.1-173.3l-20.1,43.2l312.5,145.2l-98.9,44.1l-52.4-113.2l-16.2,7.5
					l52.3,113l-153.6,68.4l12.1,27.2l67-29.9l34.3,93.8l95.6,44.4l-36.5,78.7l142.4,66.1l-2.9,6.2l27,12.5l2.9-6.2l64.8-139.5
					l321.4,149.3l-77.4,166.6l27,12.5l42.5-91.5l76.7,35.6l-32.8,70.5l16.2,7.5l42.9-92.3l120.6-59.8l153,280.2l26.1-14.3
					l-96.8-177.2l186.2-81.8l-7.2-16.4l-187.6,82.4l-86.4-158.2l75.6-43.7l252.1,117.1l20.1-43.2l-178.7-83l75.6-162.8l25.8-55.5
					l134.7,62.5l12.5-27l-134.7-62.5l96.8-208.4l-27-12.5l-72.1,155.2l-169.4-221.3l19.7-42.5l-27-12.5l-66.9,144.1l-152.5-70.8
					l71-152.9l-27-12.5l-71,152.9l-25.8-12L2099.8,1841.8z M1973.3,1820.2l-17.8,38.3l-82.7-38.4l17.8-38.3L1973.3,1820.2z
					 M2266.9,2138.5l-21.3,46l-165.5-76.9l21.3-46L2266.9,2138.5z M2301.8,2135l-0.3-0.1l5.9-12.6l90.8,42.2l-75.6,162.8l-90.8-42.2
					l33.3-71.8l0.3,0.1L2301.8,2135z M1701,2157.9l25.5-54.9l115.3,53.6l-25.5,54.9L1701,2157.9z M1811,1953.3l54.3-117l82.7,38.4
					l-54.3,117L1811,1953.3z M1949.3,1914.4l29.1,13.5l9.5,131.9l77.9,36.2l-9.4,20.3L2023,2188l-165.2-76.7l44.5-95.9
					L1949.3,1914.4z M2039.2,2195.6l33.3-71.8l165.5,76.9l-33.3,71.8L2039.2,2195.6z M2073.3,2079.8L2005,2048l-8-111.5l117.5,54.6
					l-21.7,46.8L2073.3,2079.8z M1956.8,1898.2l14.9-32.1l17.8-38.3l165.2,76.7l-32.7,70.5L1956.8,1898.2z M1573.1,1778l49-105.6
					l235.6,109.4l-49,105.6L1573.1,1778z M1803.4,1969.5l82.7,38.4l-44.5,95.9l-82.7-38.4L1803.4,1969.5z M1510.1,2265.8l-32.2-88
					l209.2-93.2l12.5,5.8l-25.5,54.9l-6.3,13.5l-68.8,148.2L1510.1,2265.8z M1709.8,2441l-115.3-53.6l94.1-202.6l115.3,53.6
					l-41.8,90.1L1709.8,2441z M1801.6,2314l41.8-90.1l25.5-54.9l321.4,149.3l-54.4,117.1l-13,27.9L1801.6,2314z M2192,2586.2
					l-5.2,11.2l-76.7-35.6l27.4-58.9l25.5-54.9l52-111.9l102.6,187.9L2192,2586.2z M2305,2438.7l-49.1-89.9l113.5,52.7L2305,2438.7z
					 M2455.7,2389l-106.1-49.3l75.6-162.8l106.1,49.3L2455.7,2389z M2580.1,2120.9l-10.5,22.7l-25.8,55.5l-106.1-49.3l-117.8-54.7
					l90.8-195.5L2580.1,2120.9z M2338.1,1985.3l-45.2,97.3l-12.5,27l-5.9,12.6l-165.5-76.9l63.6-137l13,6L2338.1,1985.3z"/><path fill="#4992ce" d="M2175.2,2421.7"/></g></g><path fill="#999" d="M760.4,1348.7v148.7h28.1c8,0,14.5,6.5,14.5,14.5v311.4c0,8-6.5,14.5-14.5,14.5h-28.1v129.8
		c0,24.8,20.2,45,45,45h1296.3c24.8,0,45-20.2,45-45v-619c0-24.8-20.2-45-45-45H805.4C780.6,1303.6,760.4,1323.8,760.4,1348.7z
		 M2101.7,1307c23,0,41.7,18.7,41.7,41.7v619c0,23-18.7,41.7-41.7,41.7H805.4c-23,0-41.7-18.7-41.7-41.7v-126.5h24.8
		c9.9,0,17.9-8,17.9-17.9v-311.4c0-9.9-8-17.9-17.9-17.9h-24.8v-145.4c0-23,18.7-41.7,41.7-41.7H2101.7z"/><g><path d="M727.1,1348.7v619c0,43.2,35.1,78.3,78.3,78.3h1296.3c43.2,0,78.3-35.1,78.3-78.3v-619c0-43.2-35.1-78.3-78.3-78.3H805.4
			C762.2,1270.4,727.1,1305.4,727.1,1348.7z M2101.7,1303.6c24.8,0,45,20.2,45,45v619c0,24.8-20.2,45-45,45H805.4
			c-24.8,0-45-20.2-45-45v-129.8h28.1c8,0,14.5-6.5,14.5-14.5v-311.4c0-8-6.5-14.5-14.5-14.5h-28.1v-148.7c0-24.8,20.2-45,45-45
			H2101.7z"/><path fill="#262626" d="M1421.9,1303.6h679.8c24.8,0,45,20.2,45,45v583l33.3,28.8v-611.8c0-43.2-35.1-78.3-78.3-78.3h-718.2
			L1421.9,1303.6z"/><path fill="#262626" d="M727.1,1347v617.9c0,44.8,36.3,81.1,81.1,81.1h1142.1l-48.2-33.3H805.4c-24.8,0-45-20.2-45-45v-129.8h28.1
			c8,0,14.5-6.5,14.5-14.5v-311.4c0-8-6.5-14.5-14.5-14.5h-28.1v-148.7c0-24.8,20.2-45,45-45h69.1l-48.2-33.3h-22.5
			C761.4,1270.4,727.1,1304.7,727.1,1347z"/><path d="M775.3,1573v182.1c0,4.6-3.7,8.2-8.2,8.2h-6.6c-4.6,0-8.2-3.7-8.2-8.2V1573c0-4.6,3.7-8.2,8.2-8.2h6.6
			C771.6,1564.8,775.3,1568.5,775.3,1573z"/><circle cx="763.8" cy="1530.3" r="11.6"/><circle cx="763.8" cy="1799.5" r="11.6"/></g><g><path d="M2117.4,2051.5l-117.2-202.2c0,0-69.7-49.2-102.1-83.8c-46.8-50-36.5-118.4-36.5-118.4l147.2,74.5l74.8,60.4
		l112.8,151.1L2117.4,2051.5" opacity=".2"/><path d="M1037.1,1638.2c0.3,46,6.1,71.9-20.7,116.6c-26.8,44.7-77.1,67.5-77.1,67.5L919.1,2046h-30.9H762.8
		l26.8-185.5l37.4-164.7l78.4-37.6l70.5-11.3L1037.1,1638.2" opacity=".2"/></g><g><path fill="#ce0e2d" d="M1885.4,1060.6c-72.7-119.4-208-114.4-208-114.4s-132.8-5-204.1,114.4s-23.8,216.3-23.8,216.3
		s9.7,70.2,100.6,201.2c64.8,93.4,127.3,160,127.3,160s63.7-66.7,129.7-160c92.6-130.9,102.5-201.2,102.5-201.2
		S1958.1,1180,1885.4,1060.6z M1679.7,1340.1c-83,0-150.4-67.3-150.4-150.4s67.3-150.4,150.4-150.4s150.4,67.3,150.4,150.4
		S1762.8,1340.1,1679.7,1340.1z"/><defs><path id="c" d="M727.1,1348.7v619c0,43.2,35.1,78.3,78.3,78.3h1296.3
				c43.2,0,78.3-35.1,78.3-78.3v-619c0-43.2-35.1-78.3-78.3-78.3H805.4C762.2,1270.4,727.1,1305.4,727.1,1348.7z"/></defs><clipPath id="d"><use overflow="visible" xlink:href="#c"/></clipPath><polygon points="2366.3 1448.8 1677.5 1637.2 2089.2 1089.4 2224.5 1114.8 2436.3 1168.6 2405.9 1376" clip-path="url(#d)" opacity=".2"/></g><g><path fill="#fbc59f" d="M1866.2,1563l228.6,79.9l181.4,218.4l161-50.4l124.3,221.7c0,0,75.5,214.8,50.3,243.8
		c-25.2,28.9-203.6,77.3-203.6,77.3c-67.4-6.2-225.3-123.4-306.4-341l-77.9-211.9C1876.4,1729.9,1837.9,1649.4,1866.2,1563z"/><path fill="#e9ae84" d="M2216.9,2188.7c-44.2-58.3-138.1-377.7-138.1-377.7s-44.6-23.1-110.1-65.8
		c-120.9-78.8-100.7-130.8-109.3-153.8c-11.6,75.7,33.4,146.3,164.5,209.4l77.9,211.9c62.4,167.5,170.4,275.5,247.6,319.2
		C2348.4,2331.1,2260.9,2246.7,2216.9,2188.7z"/><path fill="#fbc59f" d="M1020.2,1616c-73.8-8.7-119.1-5-198.1,16.7l-138.9,228.7l-161-50.4l-124.3,221.7c0,0-75.5,214.8-50.3,243.8
		c25.2,28.9,203.6,77.3,203.6,77.3c67.4-6.2,225.3-123.4,306.4-341l36.3-235.7c52.3-12.8,142.5-61.5,143.2-138.9
		C1037.2,1627.8,1030.5,1617.2,1020.2,1616z"/><path fill="#e9ae84" d="M930,1748.6c-43.2,7-38.8-12.4-38.8-12.4l-9.4-30.2c0,0,11.5,97.1,0,117.3c-11.5,20.1-37.4,174.1-46,195
		c-8.6,20.9-35.3,92.8-35.3,92.8l-51.3,95.6c40.9-51.6,79.5-116.4,108.4-193.9l36.3-235.7c39.3-9.6,93.2-22.2,122.5-78
		C1015.4,1700.1,972.6,1741.7,930,1748.6z"/><path fill="#e9ae84" d="M476.6,1709.6L476.6,1709.6L476.6,1709.6l-165.2,436.5l-34.2,118.2h0L122.9,2723c0,0,5.4,6.5,14.2,21.9
		l140.2-399.2c0,0,12.4-35.8,49.8-54.4c37.4-18.6,51.8,27.3,42.5,0c-9.3-27.3-36.7-90.7-27.1-113.7
		C352.1,2154.5,476.6,1709.6,476.6,1709.6z"/></g></svg>