<!DOCTYPE svg PUBLIC "-//W3C//DTD SVG 1.1//EN" "http://www.w3.org/Graphics/SVG/1.1/DTD/svg11.dtd">

<!-- Uploaded to: SVG Repo, www.svgrepo.com, Transformed by: SVG Repo Mixer Tools -->
<svg fill="#ff0000" height="800px" width="800px" version="1.1" id="Layer_1" xmlns="http://www.w3.org/2000/svg" xmlns:xlink="http://www.w3.org/1999/xlink" viewBox="-51.2 -51.2 614.40 614.40" xml:space="preserve" stroke="#ff0000" stroke-width="0.00512" transform="rotate(0)">

<g id="SVGRepo_bgCarrier" stroke-width="0"/>

<g id="SVGRepo_tracerCarrier" stroke-linecap="round" stroke-linejoin="round" stroke="#fafafa" stroke-width="51.2"> <g> <g> <path d="M256,0C161.899,0,85.333,76.565,85.333,170.667c0,86.869,65.28,158.635,149.333,169.195v150.805 c0,11.776,9.557,21.333,21.333,21.333s21.333-9.557,21.333-21.333V339.861c84.053-10.56,149.333-82.325,149.333-169.195 C426.667,76.565,350.101,0,256,0z M256,128c-23.531,0-42.667,19.136-42.667,42.667c0,11.776-9.557,21.333-21.333,21.333 s-21.333-9.557-21.333-21.333c0-47.061,38.272-85.333,85.333-85.333c11.776,0,21.333,9.557,21.333,21.333S267.776,128,256,128z"/> </g> </g> </g>

<g id="SVGRepo_iconCarrier"> <g> <g> <path d="M256,0C161.899,0,85.333,76.565,85.333,170.667c0,86.869,65.28,158.635,149.333,169.195v150.805 c0,11.776,9.557,21.333,21.333,21.333s21.333-9.557,21.333-21.333V339.861c84.053-10.56,149.333-82.325,149.333-169.195 C426.667,76.565,350.101,0,256,0z M256,128c-23.531,0-42.667,19.136-42.667,42.667c0,11.776-9.557,21.333-21.333,21.333 s-21.333-9.557-21.333-21.333c0-47.061,38.272-85.333,85.333-85.333c11.776,0,21.333,9.557,21.333,21.333S267.776,128,256,128z"/> </g> </g> </g>

</svg>